<?xml version="1.0" encoding="utf-8"?>
<!-- Generator: Adobe Illustrator 23.0.3, SVG Export Plug-In . SVG Version: 6.00 Build 0)  -->
<svg version="1.1" id="Layer_1" xmlns="http://www.w3.org/2000/svg" xmlns:xlink="http://www.w3.org/1999/xlink" x="0px" y="0px"
	 viewBox="0 0 850.39 850.39" style="enable-background:new 0 0 850.39 850.39;" xml:space="preserve">
<style type="text/css">
	.st0{fill:#E75324;}
</style>
<g>
	<path class="st0" d="M753.28,354.31c-3.91-19.09-9.74-37.87-17.33-55.82c-7.45-17.62-16.68-34.61-27.41-50.51
		c-10.63-15.74-22.85-30.54-36.3-43.99c-13.45-13.45-28.25-25.66-44-36.3c-15.89-10.74-32.89-19.96-50.51-27.41
		c-17.95-7.59-36.73-13.42-55.82-17.33c-19.59-4.01-39.74-6.04-59.91-6.04c-20.17,0-40.32,2.03-59.91,6.04
		c-19.09,3.91-37.87,9.74-55.82,17.33c-17.62,7.45-34.61,16.68-50.51,27.41c-15.74,10.63-30.54,22.85-43.99,36.3
		c-13.45,13.45-25.66,28.25-36.3,43.99c-10.74,15.89-19.96,32.89-27.41,50.51c-7.59,17.95-13.42,36.73-17.33,55.82
		c-4.01,19.59-6.04,39.74-6.04,59.91c0,14.36,1.03,28.71,3.07,42.86c-13.27,7.24-25.3,16.45-35.86,27.49
		c-13.21,13.81-23.47,29.77-30.5,47.46c-7.28,18.31-10.74,37.67-10.31,57.53c0.44,19.86,4.75,39.04,12.82,57.02
		c7.8,17.36,18.75,32.86,32.56,46.07c13.81,13.21,29.77,23.47,47.46,30.5c17.29,6.87,35.5,10.34,54.19,10.34
		c1.11,0,2.22-0.01,3.33-0.04c7.16-0.16,14.23-0.82,21.19-1.98c0.5-5.66-0.08-11.77-1-17.21c-6.73,1.22-13.6,1.92-20.57,2.07
		c-0.98,0.02-1.96,0.03-2.94,0.03c-33.64,0-65.44-12.75-89.83-36.09c-25.09-24.02-39.34-56.36-40.1-91.09
		c-0.76-34.73,12.04-67.67,36.05-92.77c8.02-8.39,16.98-15.56,26.64-21.42c5.1-3.09,10.4-5.82,15.86-8.17
		c15.16-6.53,31.59-10.13,48.6-10.51c0.98-0.02,1.96-0.03,2.94-0.03c4.63,0,9.23,0.24,13.78,0.72c6.03,0.63,11.98,1.69,17.81,3.14
		c21.67,5.4,41.67,16.37,58.24,32.23c25.09,24.02,39.34,56.36,40.1,91.09c0.1,4.8-0.05,9.57-0.46,14.28
		c-0.52,6.05-1.46,12.01-2.8,17.86c-4.25,18.55-12.55,35.93-24.49,51.06c-2.6,3.3-5.37,6.49-8.31,9.56
		c-1.21,1.26-2.44,2.5-3.69,3.71c5.42,2.73,10.93,5.29,16.49,7.68c0.43,0.19,0.87,0.37,1.3,0.55c17.95,7.59,36.73,13.42,55.82,17.33
		c19.59,4.01,39.74,6.04,59.91,6.04c20.17,0,40.32-2.03,59.91-6.04c19.09-3.91,37.87-9.74,55.82-17.33
		c17.62-7.45,34.61-16.68,50.51-27.41c15.74-10.63,30.54-22.85,44-36.3c13.45-13.45,25.66-28.25,36.3-44
		c10.74-15.89,19.96-32.89,27.41-50.51c7.59-17.95,13.42-36.73,17.33-55.82c4.01-19.59,6.04-39.74,6.04-59.91
		S757.29,373.9,753.28,354.31z M462.01,694.41c-37.28,0-72.88-7.32-105.44-20.59c7.57-10.2,13.76-21.32,18.48-33.21
		c2.3-5.79,4.22-11.68,5.75-17.66c1.45-5.64,2.55-11.36,3.32-17.14c0.99-7.48,1.4-15.07,1.23-22.73
		c-0.44-19.86-4.75-39.04-12.83-57.02c-7.8-17.36-18.75-32.86-32.56-46.07c-13.81-13.21-29.77-23.47-47.46-30.5
		c-8.09-3.21-16.38-5.68-24.84-7.4c-0.27-3.57-0.45-7.16-0.53-10.77c-1.14-52.05,18.05-101.43,54.04-139.04
		c35.99-37.62,84.48-58.96,136.53-60.11c1.47-0.03,2.93-0.05,4.4-0.05c50.42,0,98.09,19.11,134.64,54.09
		c37.61,35.99,58.96,84.48,60.1,136.53c1.14,52.05-18.05,101.43-54.04,139.04c-35.99,37.61-84.48,58.96-136.53,60.1
		c-1.47,0.03-2.93,0.05-4.4,0.05c-5.65,0-11.26-0.24-16.82-0.72c-0.7,5.09-0.93,11.03,0.06,17.19c5.55,0.43,11.13,0.65,16.74,0.65
		c1.6,0,3.2-0.02,4.8-0.05c28.61-0.63,56.25-6.85,82.15-18.48c12.45-5.59,24.42-12.43,35.58-20.34
		c11.05-7.83,21.42-16.77,30.8-26.57c9.38-9.8,17.85-20.55,25.19-31.94c7.41-11.5,13.72-23.76,18.75-36.44
		c10.48-26.38,15.48-54.27,14.85-82.88c-0.63-28.61-6.85-56.25-18.48-82.15c-5.59-12.44-12.43-24.42-20.34-35.58
		c-7.83-11.06-16.77-21.42-26.57-30.8c-9.8-9.38-20.55-17.85-31.94-25.19c-11.5-7.41-23.76-13.72-36.44-18.75
		c-26.38-10.48-54.27-15.48-82.88-14.85c-28.61,0.63-56.25,6.85-82.15,18.48c-12.44,5.59-24.42,12.43-35.58,20.34
		c-11.06,7.83-21.42,16.77-30.8,26.57c-9.38,9.8-17.85,20.55-25.19,31.94c-7.41,11.5-13.72,23.76-18.75,36.44
		c-10.48,26.38-15.48,54.27-14.85,82.88c0.06,2.66,0.16,5.3,0.32,7.94c-5.08-0.41-10.2-0.56-15.36-0.45
		c-17.64,0.39-34.76,3.84-50.96,10.27c-1.45-11.55-2.2-23.31-2.2-35.24c0-154.5,125.69-280.19,280.19-280.19
		c154.49,0,280.19,125.69,280.19,280.19C742.2,568.72,616.51,694.41,462.01,694.41z"/>
	<g>
		<path class="st0" d="M448.11,553.05v-30.63c-17.59-0.3-35.79-5.76-46.4-13.34l7.28-20.32c10.92,7.28,26.69,13.04,43.67,13.04
			c21.53,0,36.09-12.43,36.09-29.72c0-16.68-11.83-26.99-34.27-36.09c-30.93-12.13-50.04-26.08-50.04-52.46
			c0-25.17,17.89-44.28,45.79-48.83v-30.63h18.8v29.42c18.2,0.61,30.63,5.46,39.43,10.62l-7.58,20.02
			c-6.37-3.64-18.8-10.31-38.21-10.31c-23.35,0-32.15,13.95-32.15,26.08c0,15.77,11.22,23.65,37.6,34.57
			c31.24,12.74,47.01,28.51,47.01,55.5c0,23.96-16.68,46.4-47.92,51.56v31.54H448.11z"/>
	</g>
	<g>
		<path class="st0" d="M305.72,597.46c-0.68,5.56-2.37,11.17-5.05,16.69c-3.94,8.13-10.09,14.96-17.79,19.75
			c-7.67,4.77-16.5,7.3-25.55,7.3h-70.56v-13.34h70.56c13.28,0,25.58-7.67,31.33-19.53c4.37-9.02,5.2-17.9,2.47-26.41
			c-4.59-14.3-17.91-23.92-33.13-23.92h-42.75l33.78,33.78l-10.45,10.45l-50.15-50.15l49.42-49.42l10.45,10.45l-31.55,31.55h41.25
			c10.23,0,20.02,3.15,28.31,9.13c8.34,6.01,14.39,14.32,17.52,24.05C305.89,584.24,306.53,590.84,305.72,597.46z"/>
	</g>
</g>
</svg>
